<svg xmlns="http://www.w3.org/2000/svg" viewBox="0 0 17.1 14">
  <defs>
    <style>
      .cls-1 {
        fill: #fff;
      }
    </style>
  </defs>
  <g id="twitter" transform="translate(0.002 -28.097)">
    <path id="XMLID_827_" class="cls-1" d="M16.71,29.713a6.482,6.482,0,0,1-.827.3,3.656,3.656,0,0,0,.744-1.309.276.276,0,0,0-.4-.321,6.509,6.509,0,0,1-1.924.76,3.672,3.672,0,0,0-6.24,2.624,3.744,3.744,0,0,0,.03.474,9.4,9.4,0,0,1-6.45-3.422.276.276,0,0,0-.452.035,3.676,3.676,0,0,0,.376,4.225,3.109,3.109,0,0,1-.491-.219.276.276,0,0,0-.41.235c0,.016,0,.033,0,.049a3.684,3.684,0,0,0,1.8,3.157c-.093-.009-.187-.023-.279-.041a.276.276,0,0,0-.314.355,3.67,3.67,0,0,0,2.689,2.46,6.494,6.494,0,0,1-3.471.991,6.64,6.64,0,0,1-.777-.046.276.276,0,0,0-.181.506A9.9,9.9,0,0,0,5.478,42.1a9.523,9.523,0,0,0,7.378-3.241,10.272,10.272,0,0,0,2.557-6.695c0-.1,0-.2,0-.3a7.136,7.136,0,0,0,1.642-1.74.276.276,0,0,0-.341-.405Z" transform="translate(0 0)"/>
  </g>
</svg>
