<svg xmlns="http://www.w3.org/2000/svg" viewBox="0 0 14.147 18">
  <defs>
    <style>
      .cls-1 {
        fill: #fff;
      }
    </style>
  </defs>
  <g id="pinterest" transform="translate(-33.181)">
    <path id="XMLID_799_" class="cls-1" d="M45.494,1.845A6.9,6.9,0,0,0,40.665,0a7.589,7.589,0,0,0-5.6,2.158,6.377,6.377,0,0,0-1.887,4.42c0,2,.838,3.542,2.242,4.114a.742.742,0,0,0,.282.058.627.627,0,0,0,.612-.5c.047-.178.157-.618.2-.809a.759.759,0,0,0-.2-.821,2.616,2.616,0,0,1-.595-1.787A4.5,4.5,0,0,1,40.388,2.3c2.4,0,3.9,1.366,3.9,3.566a7.41,7.41,0,0,1-.842,3.62,2.49,2.49,0,0,1-2.06,1.441,1.365,1.365,0,0,1-1.086-.5,1.249,1.249,0,0,1-.219-1.085c.107-.454.253-.927.395-1.384a8.566,8.566,0,0,0,.5-2.254,1.637,1.637,0,0,0-1.647-1.8c-1.252,0-2.233,1.272-2.233,2.9a4.305,4.305,0,0,0,.307,1.62c-.158.668-1.1,4.642-1.273,5.391-.1.437-.722,3.892.3,4.167,1.152.309,2.181-3.055,2.286-3.435.085-.309.382-1.478.564-2.2a3.482,3.482,0,0,0,2.323.9,5.18,5.18,0,0,0,4.159-2.081,8.353,8.353,0,0,0,1.564-5.108A5.89,5.89,0,0,0,45.494,1.845Z" transform="translate(0 0)"/>
  </g>
</svg>
